<svg width="16" height="17" viewBox="0 0 16 17" fill="none" xmlns="http://www.w3.org/2000/svg">
<path d="M8 9.54541V5.99996" stroke="#D30000" stroke-miterlimit="10" stroke-linecap="square"/>
<path d="M7.99893 11.3182C7.67258 11.3182 7.40803 11.5827 7.40803 11.9091C7.40803 12.2354 7.67258 12.5 7.99893 12.5C8.32528 12.5 8.58984 12.2354 8.58984 11.9091C8.58984 11.5827 8.32528 11.3182 7.99893 11.3182Z" fill="#D30000"/>
<path d="M1.47697 12.6625L6.87729 2.50542C6.98516 2.30258 7.14657 2.13284 7.34416 2.01445C7.54175 1.89606 7.76804 1.8335 7.99869 1.8335C8.22935 1.8335 8.45564 1.89606 8.65323 2.01445C8.85082 2.13284 9.01223 2.30258 9.1201 2.50542L14.5204 12.6625C14.6218 12.8542 14.6715 13.0688 14.6648 13.2852C14.658 13.5017 14.595 13.7128 14.4819 13.8978C14.3688 14.0829 14.2094 14.2356 14.0193 14.3412C13.8292 14.4467 13.6149 14.5015 13.3972 14.5001L2.59777 14.5001C2.38029 14.5011 2.16625 14.446 1.97649 14.3403C1.78674 14.2346 1.62771 14.0818 1.51488 13.8968C1.40205 13.7118 1.33926 13.5009 1.33262 13.2846C1.32598 13.0684 1.37571 12.854 1.47697 12.6625V12.6625Z" stroke="#D30000" stroke-miterlimit="10" stroke-linecap="round" stroke-linejoin="round"/>
</svg>
