<?xml version="1.0" encoding="utf-8"?>
<!-- Generator: Adobe Illustrator 28.5.0, SVG Export Plug-In . SVG Version: 9.03 Build 54727)  -->
<svg version="1.1" id="Layer_1" xmlns="http://www.w3.org/2000/svg" xmlns:xlink="http://www.w3.org/1999/xlink" x="0px" y="0px"
	 width="88px" height="22px" viewBox="0 0 88 22" enable-background="new 0 0 88 22" xml:space="preserve">
<path fill-rule="evenodd" clip-rule="evenodd" fill="#FFFFFF" d="M88,5.3C87,1.5,84.6,0,81.3,0c-2.7,0-6,1.5-6,5.1
	c0,2.3,1.6,4.2,4.2,4.6l2.5,0.4c1.7,0.3,2.2,0.9,2.2,1.8c0,1-1,1.5-2.6,1.5c-2,0-3.3-0.7-3.5-2.7l-3.6,0.6c0.6,3.9,4.1,5.5,7.2,5.5
	c3,0,6.2-1.7,6.2-5.2c0-2.4-1.4-4.1-4.1-4.6l-2.7-0.5c-1.5-0.3-2-1-2-1.8c0-0.9,1-1.5,2.3-1.5c1.7,0,2.9,0.6,3,2.5L88,5.3L88,5.3
	L88,5.3L88,5.3z M8.1,11.2l3.7-10.8h4.4l-6.5,16H6.5L0,0.4h4.4L8.1,11.2L8.1,11.2z M31.1,5c0,1.3-1,2.2-2.2,2.2S26.7,6.3,26.7,5
	s1-2.2,2.2-2.2S31.1,3.7,31.1,5L31.1,5L31.1,5z M31.8,10.7c-1.5,1.9-3,3.2-5.8,3.2s-5-1.7-6.7-4.1c-0.7-1-1.7-1.2-2.5-0.7
	c-0.7,0.5-0.9,1.6-0.2,2.5c2.3,3.5,5.6,5.6,9.4,5.6c3.5,0,6.2-1.7,8.3-4.4c0.8-1,0.8-2.1,0-2.7C33.6,9.4,32.6,9.6,31.8,10.7
	L31.8,10.7L31.8,10.7z M41.5,8.4c0,3.3,1.9,5,4.1,5c2,0,4.1-1.6,4.1-5s-2.1-4.9-4.1-4.9C43.4,3.4,41.5,5,41.5,8.4L41.5,8.4L41.5,8.4
	z M41.5,2.6V0.4h-4V22h4v-7.7c1.3,1.8,3.1,2.5,5,2.5c3.6,0,7.2-2.8,7.2-8.7S50,0,46.9,0C44.3,0,42.6,1.1,41.5,2.6L41.5,2.6L41.5,2.6
	L41.5,2.6z M60.7,8.4c0,3.3,1.9,5,4.1,5c2,0,4.1-1.6,4.1-5s-2.1-4.9-4.1-4.9C62.6,3.4,60.7,5,60.7,8.4L60.7,8.4L60.7,8.4z M60.7,2.6
	V0.4h-4V22h4v-7.7c1.3,1.8,3.1,2.5,5,2.5c3.6,0,7.2-2.8,7.2-8.7S69.2,0,66,0C63.5,0,61.8,1.1,60.7,2.6L60.7,2.6L60.7,2.6L60.7,2.6z"
	/>
</svg>
