<svg width="167" height="47" viewBox="0 0 167 47" fill="none" xmlns="http://www.w3.org/2000/svg">
<path d="M83.1364 15.3172H74.5741V37.4055H69.4912V15.3172H60.916V10.756H83.1364V15.3172ZM99.7337 29.1416H84.8653C85.224 32.1893 87.2079 34.0925 90.4842 34.0925C92.6712 34.0925 94.2185 33.1803 95.0138 31.6958H99.7682C98.6185 35.0462 95.083 37.8243 90.3977 37.8243C84.2429 37.8243 80.2362 33.4083 80.2362 27.9225C80.2362 22.4367 84.3639 18.0953 90.039 18.0953C95.714 18.0953 100.222 22.2086 99.7466 29.1416H99.7337ZM94.9792 25.9446C94.6594 23.237 92.7144 21.6779 89.9352 21.6779C88.6832 21.6277 87.4593 22.0436 86.5193 22.8387C85.5794 23.6338 84.996 24.7466 84.8912 25.9446H94.9792ZM122.092 18.5141H116.698L109.394 25.9778H108.123V9.98476H103.2V37.4055H108.123V31.3143L110.349 29.2411L116.461 37.4055H122.512L114.079 26.8693L122.092 18.5141ZM137.021 18.0995C135.83 18.0704 134.656 18.3744 133.643 18.9745C132.629 19.5746 131.819 20.4447 131.312 21.4789H130.041V18.5141H125.118V37.4055H130.041V26.21C130.041 23.9626 131.312 22.2501 134.207 22.2501C137.103 22.2501 138.378 23.8092 138.378 26.21V37.4055H143.301V24.228C143.301 20.7988 140.959 18.0953 137.026 18.0953L137.021 18.0995ZM167 18.5141V37.4055H162.081V33.9805H160.811C159.618 36.3399 157.552 37.8243 154.971 37.8243C149.932 37.8243 146.595 33.483 146.595 27.9598C146.595 22.3621 149.932 18.0953 154.971 18.0953C157.565 18.0953 159.618 19.5839 160.811 21.9433H162.081V18.5141H167ZM162.081 27.9598C162.081 24.4187 160.175 21.9433 156.839 21.9433C153.502 21.9433 151.518 24.3441 151.518 27.9598C151.518 31.5756 153.502 33.9805 156.839 33.9805C160.175 33.9805 162.081 31.5051 162.081 27.9598ZM19.0166 34.9798C16.1488 37.8904 12.5899 40.0925 8.64335 41.3986C10.3529 42.7967 12.2553 43.9618 14.2968 44.8609C17.2672 43.4488 19.9897 41.6007 22.3663 39.3834C21.1284 38.0052 20.0095 36.5324 19.0209 34.9798H19.0166ZM31.9832 17.5646V1.05736C30.0782 0.474007 28.1052 0.118861 26.1094 0V17.9336C26.1026 21.9777 27.2781 25.9426 29.5023 29.3779C31.1466 25.638 31.9917 21.6194 31.9875 17.5604L31.9832 17.5646ZM17.439 32.1727C16.4342 30.1939 15.6364 28.1243 15.0575 25.9944C13.8126 28.1941 12.0525 30.0865 9.91567 31.5227C7.77887 32.9588 5.32373 33.8996 2.74355 34.2708C3.65834 35.9669 4.78461 37.55 6.09758 38.9854C10.504 37.8555 14.4551 35.4821 17.439 32.1727ZM35.16 2.25984V18.3068C35.16 21.1637 35.3761 23.2826 38.0645 26.4422C39.2214 27.8513 40.6631 29.0216 42.303 29.8831C43.9429 30.7445 45.7473 31.2793 47.608 31.4553C49.6634 25.9736 49.5287 19.9557 47.2297 14.5637C44.9308 9.17172 40.6307 4.78825 35.16 2.25984ZM19.5569 29.3779C21.7811 25.9426 22.9566 21.9777 22.9498 17.9336V0C20.9525 0.118522 18.9781 0.473672 17.0716 1.05736V17.5604C17.0675 21.6194 17.9126 25.638 19.5569 29.3779ZM24.5317 37.1526C25.7976 35.706 26.9231 34.1515 27.8944 32.5085C26.4871 30.6495 25.3554 28.6121 24.5317 26.4546C23.7066 28.6122 22.5735 30.6496 21.1648 32.5085C22.136 34.1525 23.2631 35.7071 24.5317 37.1526ZM18.2602 46.2251C22.369 47.2583 26.6859 47.2583 30.7946 46.2251C28.5302 44.9097 26.4278 43.3532 24.5274 41.5852C22.626 43.3521 20.5238 44.9085 18.2602 46.2251ZM11.0076 26.4546C13.696 23.2826 13.9121 21.1762 13.9121 18.3192V2.25984C8.4383 4.78538 4.13447 9.16764 1.83221 14.5599C-0.470042 19.9521 -0.607324 25.9716 1.4469 31.4553C3.30955 31.283 5.11667 30.7512 6.75964 29.8918C8.40262 29.0324 9.84755 27.8633 11.0076 26.4546ZM34.0233 26.0068C33.4463 28.1373 32.6485 30.2071 31.6418 32.1851C34.6222 35.4924 38.5685 37.8657 42.9702 38.9978C44.2832 37.5624 45.4095 35.9793 46.3243 34.2832C43.7452 33.9089 41.2919 32.9654 39.1573 31.5271C37.0228 30.0888 35.2654 28.1949 34.0233 25.9944V26.0068ZM30.0382 34.9798C29.0496 36.5324 27.9308 38.0052 26.6928 39.3834C29.0681 41.6004 31.7892 43.4484 34.7581 44.8609C36.8006 43.9566 38.703 42.7859 40.4115 41.382C36.4667 40.0807 32.908 37.8843 30.0382 34.9798Z" fill="#00B3B3"/>
</svg>
